<?xml version="1.0" standalone="no"?>
<!DOCTYPE svg PUBLIC "-//W3C//DTD SVG 20010904//EN"
 "http://www.w3.org/TR/2001/REC-SVG-20010904/DTD/svg10.dtd">
<svg version="1.0" xmlns="http://www.w3.org/2000/svg"
 width="225.000000pt" height="225.000000pt" viewBox="0 0 225.000000 225.000000"
 preserveAspectRatio="xMidYMid meet">
<metadata>
Created by potrace 1.16, written by Peter Selinger 2001-2019
</metadata>
<g transform="translate(0.000000,225.000000) scale(0.100000,-0.100000)"
fill="#fcfc05" stroke="none">
<path d="M1005 1970 c-161 -32 -315 -151 -391 -302 -49 -97 -67 -184 -61 -293
8 -146 31 -195 232 -483 40 -57 71 -114 82 -150 l17 -58 85 4 c48 2 88 6 91 9
2 2 -5 52 -17 111 -16 78 -34 131 -67 197 -62 122 -65 120 152 120 175 0 222
-6 222 -29 0 -8 -16 -41 -34 -73 -37 -61 -79 -193 -90 -280 l-7 -53 53 0 c29
0 63 -3 74 -6 18 -5 22 0 29 33 10 55 54 132 149 262 133 181 176 286 176 426
-1 265 -185 499 -441 560 -68 16 -187 18 -254 5z"/>
<path d="M1013 1058 c62 -142 97 -263 97 -338 0 -27 3 -30 30 -30 26 0 30 4
30 28 1 68 43 218 97 340 4 9 -25 12 -127 12 -102 0 -131 -3 -127 -12z"/>
<path d="M902 648 c-17 -17 -17 -259 0 -276 17 -17 429 -17 446 0 17 17 17
259 0 276 -17 17 -429 17 -446 0z"/>
<path d="M963 305 c-11 -31 13 -36 168 -33 146 3 154 4 154 23 0 19 -8 20
-158 23 -136 2 -158 0 -164 -13z"/>
</g>
</svg>
