<?xml version="1.0" standalone="no"?>
<!DOCTYPE svg PUBLIC "-//W3C//DTD SVG 20010904//EN"
 "http://www.w3.org/TR/2001/REC-SVG-20010904/DTD/svg10.dtd">
<svg version="1.0" xmlns="http://www.w3.org/2000/svg"
 width="1713.000000pt" height="910.000000pt" viewBox="0 0 1713.000000 910.000000"
 preserveAspectRatio="xMidYMid meet">
<g transform="translate(0.000000,910.000000) scale(0.100000,-0.100000)"
fill="#000000" stroke="none">
<path d="M8075 8914 c-16 -2 -73 -9 -125 -15 -694 -79 -1336 -447 -1666 -954
-95 -147 -179 -336 -214 -482 -6 -29 -16 -53 -21 -53 -6 0 -60 9 -122 20 -802
142 -1651 -84 -2197 -583 -143 -132 -306 -339 -381 -488 -16 -33 -33 -59 -37
-59 -4 0 -39 9 -77 20 -105 31 -275 67 -410 86 -166 25 -560 25 -735 1 -447
-62 -857 -223 -1184 -465 -130 -96 -342 -310 -428 -432 -130 -184 -224 -397
-270 -614 -29 -138 -31 -415 -4 -556 107 -551 498 -1017 1091 -1301 286 -137
653 -230 965 -246 l125 -6 43 -77 c107 -191 315 -421 518 -572 320 -238 705
-391 1154 -459 209 -32 581 -32 790 0 379 57 701 171 994 350 33 20 61 31 63
25 2 -5 29 -50 61 -100 515 -795 1671 -1169 2741 -888 462 121 890 378 1154
693 l73 87 128 -62 c374 -182 745 -264 1191 -264 276 0 450 21 700 85 721 184
1284 654 1490 1245 19 57 37 105 39 107 1 2 49 -13 106 -32 594 -200 1308
-183 1880 45 299 119 543 274 754 479 348 339 516 717 516 1160 0 222 -35 397
-119 592 -248 574 -847 1019 -1572 1168 -216 45 -326 55 -579 55 -265 0 -398
-13 -610 -60 -115 -26 -327 -90 -405 -124 l-42 -18 -23 55 c-12 30 -50 100
-84 156 -193 322 -486 583 -861 767 -301 147 -588 227 -950 261 -146 14 -488
6 -630 -15 -109 -16 -336 -63 -344 -72 -3 -3 -18 43 -33 101 -127 487 -504
916 -1032 1175 -297 145 -585 225 -935 260 -95 9 -416 12 -486 4z m632 -43
c702 -107 1291 -461 1608 -966 91 -146 146 -270 191 -433 24 -87 24 -95 10
-117 -44 -67 -278 -234 -328 -235 -10 0 -18 -5 -18 -11 0 -13 27 -5 109 32 75
35 145 84 223 158 54 50 64 55 152 76 420 102 899 98 1320 -10 405 -103 776
-304 1055 -569 133 -126 286 -336 363 -495 37 -76 39 -84 24 -93 -38 -21 -195
-159 -229 -200 -36 -44 -67 -105 -67 -130 1 -7 11 7 22 32 28 59 134 161 247
239 238 162 768 275 1216 257 674 -26 1268 -273 1681 -697 238 -246 382 -508
451 -822 25 -117 25 -437 0 -557 -179 -838 -1020 -1457 -2066 -1519 -510 -30
-1125 103 -1334 290 -32 28 -57 46 -57 41 0 -17 139 -142 178 -160 l40 -18
-29 -89 c-15 -50 -56 -144 -89 -210 -181 -359 -506 -664 -921 -864 -178 -86
-303 -132 -473 -176 -248 -63 -425 -85 -691 -85 -378 0 -714 65 -1040 201
-173 72 -249 114 -294 165 -91 103 -130 239 -97 334 19 54 14 64 -10 18 -24
-45 -24 -157 -1 -225 10 -28 36 -79 58 -113 39 -61 40 -62 23 -89 -29 -43
-213 -229 -292 -293 -248 -203 -572 -366 -905 -453 -1049 -276 -2176 87 -2698
869 l-79 119 32 35 c65 75 104 202 93 303 -11 92 -20 83 -20 -20 0 -88 -3
-102 -32 -161 -59 -120 -123 -171 -352 -285 -405 -202 -899 -299 -1350 -267
-386 27 -702 110 -1012 263 -380 189 -651 428 -855 754 -53 87 -53 89 32 99
186 22 432 153 497 265 25 42 8 39 -21 -4 -71 -103 -259 -195 -474 -231 -322
-54 -889 70 -1284 282 -541 288 -889 727 -990 1249 -25 127 -25 367 0 500 147
789 889 1395 1876 1532 91 12 191 17 365 17 278 -1 426 -19 679 -84 122 -31
170 -49 248 -92 181 -99 335 -243 424 -396 41 -70 57 -77 23 -10 -57 113 -177
255 -283 337 -29 23 -89 63 -134 90 l-81 48 54 94 c81 143 158 242 290 375
262 264 580 451 969 568 403 123 832 148 1267 75 l126 -21 28 -57 c70 -144
181 -278 258 -315 57 -26 54 -15 -6 25 -69 46 -136 131 -199 255 l-51 103 22
82 c199 725 956 1294 1861 1398 52 6 111 13 130 15 97 11 491 -3 617 -23z"/>
</g>
</svg>
