<?xml version="1.0" standalone="no"?>
<!DOCTYPE svg PUBLIC "-//W3C//DTD SVG 20010904//EN"
 "http://www.w3.org/TR/2001/REC-SVG-20010904/DTD/svg10.dtd">
<svg version="1.0" xmlns="http://www.w3.org/2000/svg"
 width="474.000000pt" height="474.000000pt" viewBox="0 0 474.000000 474.000000"
 preserveAspectRatio="xMidYMid meet">
<metadata>
Created by potrace 1.16, written by Peter Selinger 2001-2019
</metadata>
<g transform="translate(0.000000,474.000000) scale(0.100000,-0.100000)"
fill="#05fc8d" stroke="none">
<path d="M390 4730 c0 -5 -6 -10 -12 -10 -7 0 -41 -13 -75 -30 -114 -53 -207
-161 -244 -281 -18 -59 -19 -125 -19 -2031 0 -2170 -4 -2028 61 -2144 39 -69
128 -149 204 -186 33 -15 66 -28 73 -28 6 0 12 -4 12 -10 0 -7 667 -10 1980
-10 1313 0 1980 3 1980 10 0 6 6 10 13 10 30 0 137 61 189 109 62 57 108 130
132 211 14 48 16 252 16 2029 0 1917 -1 1978 -19 2039 -37 121 -129 228 -244
282 -34 17 -68 30 -74 30 -7 0 -13 5 -13 10 0 7 -667 10 -1980 10 -1313 0
-1980 -3 -1980 -10z m3927 -326 c15 -11 38 -36 51 -54 l22 -33 0 -1947 0
-1947 -22 -33 c-13 -18 -36 -43 -51 -54 l-28 -21 -1919 0 -1919 0 -28 21 c-15
11 -38 36 -51 54 l-22 33 0 1944 c0 2100 -3 1969 52 2020 12 12 34 26 48 32
16 6 678 9 1932 8 l1907 -2 28 -21z"/>
<path d="M2250 4058 c-314 -17 -632 -136 -899 -335 -102 -76 -283 -260 -352
-358 -116 -164 -207 -350 -261 -535 -74 -255 -79 -609 -12 -875 142 -562 580
-1025 1134 -1200 328 -103 699 -103 1022 1 607 195 1054 710 1159 1335 25 151
27 392 4 536 -102 636 -543 1155 -1151 1353 -208 68 -407 92 -644 78z m343
-323 c144 -26 255 -62 383 -125 281 -138 498 -355 634 -633 98 -202 140 -382
140 -607 0 -225 -42 -408 -140 -607 -138 -281 -346 -490 -625 -628 -207 -103
-386 -145 -615 -145 -224 0 -405 42 -606 140 -403 197 -680 568 -759 1017 -17
102 -20 322 -4 426 30 199 132 449 251 610 74 99 208 234 303 305 148 110 387
210 585 247 104 19 344 19 453 0z"/>
<path d="M1765 2576 c-42 -18 -83 -69 -91 -111 -3 -19 -4 -68 -2 -109 4 -80
18 -110 72 -150 38 -29 124 -29 162 0 58 43 69 68 72 172 3 88 1 100 -20 131
-13 19 -35 43 -49 54 -34 25 -105 31 -144 13z"/>
<path d="M2905 2576 c-41 -18 -83 -69 -91 -111 -12 -66 0 -182 22 -211 52 -71
124 -90 196 -55 67 32 88 77 88 186 0 71 -4 94 -22 126 -37 66 -124 95 -193
65z"/>
</g>
</svg>
